<svg width="100" height="100" viewBox="0 0 100 100" fill="none" xmlns="http://www.w3.org/2000/svg">
<rect width="100" height="100" fill="#C4C4C4"/>
<path d="M29.6875 51.7188C24.5417 50.2396 20.7917 48.4271 18.4375 46.2812C16.1042 44.1146 14.9375 41.4479 14.9375 38.2812C14.9375 34.6979 16.3646 31.7396 19.2188 29.4062C22.0938 27.0521 25.8229 25.875 30.4062 25.875C33.5312 25.875 36.3125 26.4792 38.75 27.6875C41.2083 28.8958 43.1042 30.5625 44.4375 32.6875C45.7917 34.8125 46.4688 37.1354 46.4688 39.6562H40.4375C40.4375 36.9062 39.5625 34.75 37.8125 33.1875C36.0625 31.6042 33.5938 30.8125 30.4062 30.8125C27.4479 30.8125 25.1354 31.4688 23.4688 32.7812C21.8229 34.0729 21 35.875 21 38.1875C21 40.0417 21.7812 41.6146 23.3438 42.9062C24.9271 44.1771 27.6042 45.3438 31.375 46.4062C35.1667 47.4688 38.125 48.6458 40.25 49.9375C42.3958 51.2083 43.9792 52.6979 45 54.4062C46.0417 56.1146 46.5625 58.125 46.5625 60.4375C46.5625 64.125 45.125 67.0833 42.25 69.3125C39.375 71.5208 35.5312 72.625 30.7188 72.625C27.5938 72.625 24.6771 72.0312 21.9688 70.8438C19.2604 69.6354 17.1667 67.9896 15.6875 65.9062C14.2292 63.8229 13.5 61.4583 13.5 58.8125H19.5312C19.5312 61.5625 20.5417 63.7396 22.5625 65.3438C24.6042 66.9271 27.3229 67.7188 30.7188 67.7188C33.8854 67.7188 36.3125 67.0729 38 65.7812C39.6875 64.4896 40.5312 62.7292 40.5312 60.5C40.5312 58.2708 39.75 56.5521 38.1875 55.3438C36.625 54.1146 33.7917 52.9062 29.6875 51.7188ZM54.2812 72V26.5H69.1562C74.0938 26.5 77.8021 27.5208 80.2812 29.5625C82.7812 31.6042 84.0312 34.625 84.0312 38.625C84.0312 40.75 83.4271 42.6354 82.2188 44.2812C81.0104 45.9062 79.3646 47.1667 77.2812 48.0625C79.7396 48.75 81.6771 50.0625 83.0938 52C84.5312 53.9167 85.25 56.2083 85.25 58.875C85.25 62.9583 83.9271 66.1667 81.2812 68.5C78.6354 70.8333 74.8958 72 70.0625 72H54.2812ZM60.2812 50.7188V67.0938H70.1875C72.9792 67.0938 75.1771 66.375 76.7812 64.9375C78.4062 63.4792 79.2188 61.4792 79.2188 58.9375C79.2188 53.4583 76.2396 50.7188 70.2812 50.7188H60.2812ZM60.2812 45.9062H69.3438C71.9688 45.9062 74.0625 45.25 75.625 43.9375C77.2083 42.625 78 40.8438 78 38.5938C78 36.0938 77.2708 34.2812 75.8125 33.1562C74.3542 32.0104 72.1354 31.4375 69.1562 31.4375H60.2812V45.9062Z" fill="black"/>
</svg>
